<svg xmlns="http://www.w3.org/2000/svg" width="160" height="65" viewBox="0 0 160 65"><path d="M157.936 49.374c-1.235.16-2.523.27-3.757.377v.057c-2.416 17.364-26.19 20.23-26.78 6.6-.27-6.168 11.593-7.95 23.398-9.09.43-11.09-15.9 5.668-21.608-4.6-5.02-9.025 14.632-17.938 16.728-16.102 6.438 5.636 3.404 6.618-1.38 8.335-9.49 3.41-5.79 4.107-4.51 3.726 7.57-2.253 14.366-1.04 14.312 8.317 1.288-.107 2.522-.163 3.757-.27 2.306-.216 2.467 2.434-.16 2.65zm-7.514.756c-9.124 1.028-17.013 2.436-16.153 5.355 1.715 5.573 13.576 6.818 16.152-5.355zm-32.744-5.212c-.682-.037-.703-6.038.112-11.688 1.005-6.95 11.935-3.357 9.093-1.906-2.975 1.52-4.43 8.718-6.266 12.087-.635 1.162-2.605 1.527-2.94 1.508zM42.105 21.002c2.376 4.866-4.937 8.17-8.292 4.52-1.398-1.554-.755-4.56 2.636-6.192 1.696-.836 4.072-1.596 5.655 1.672zm14.957-2.14c2.585 5.296-5.38 8.895-9.03 4.92-1.523-1.694-.824-4.962 2.872-6.74 1.846-.912 4.432-1.737 6.158 1.82zm-28.18 42.804c-7.918 5.338-14.218 4.16-12.21-10.848 1.45-10.904-.95-11.52-3.123-9.442-2.846 2.697-4.63 9.723-4.685 16.412a50.98 50.98 0 0 0 1.004 4.776c.333 1.63-4.908 3.315-7.975 1.01C.837 62.79 0 54.865 0 44.132c0-8.823 1.17-14.894 2.23-15.174 8.03-2.19 9.312 1.348 7.583 7.98a47.637 47.637 0 0 0-1.395 7.925c1.673-4.663 4.07-8.484 6.803-10.172 7.417-4.664 13.606-2.473 12.435 6.8-2.007 16.58-2.174 18.828-.39 17.536 2.23-1.574 3.68 1.238 1.618 2.642zm26.1-2.076c-2.175 3.484-7.806 5.17-13.216 4.552-7.75-.843-12.545-7.756-10.705-18.097 2.01-11.185 18.066-18.322 23.197-10.34 3.735 5.788-2.175 16.016-11.597 19.782l-.502.168c1.95 5.17 6.58 7.476 11.04 2.36 2.118-2.36 3.623-1.348 1.784 1.575zm-13.605-7.418c5.855-4.16 7.806-13.32 6.19-15.905-1.73-2.697-5.075 1.517-6.246 11.746-.11 1.46-.11 2.865.057 4.16zm41.714-7.18c-1.596 2.507-3.902 4.384-5.965 5.06-2.398.73-5.185.055-5.185-2.7 0-1.01.892-3.37 3.624-4.72-.168-1.91-1.394-2.417-2.286-1.686-3.345 2.586-7.417 12.25-6.356 19.22.055.17.055.338.055.507.168.617.335 1.237.558 1.854.557 1.574-4.907 3.316-7.973.956-1.06-.788-1.617-6.97-1.617-17.704 0-8.825 1.95-16.637 3.01-16.918 6.413-1.743 10.148 1.292 8.14 7.25-1.17 3.372-2.23 6.8-2.842 10.398 2.453-6.688 6.523-12.872 9.812-14.5 5.856-2.924 10.092.955 8.867 7.812-.056.11-.112.393-.112.45-.056.56-.566 2.3-.39 1.74-.516 1.645-.892 2.277-1.34 2.98z"/><path d="M113.207 26.16a86.988 86.988 0 0 0-1.115 7.532c-1.06 10.06-.612 18.996.613 22.986.726 2.137 3.457 4.946 6.078 2.023 2.843-3.202 5.967-1.348 2.174 2.417-2.34 2.305-6.69 3.878-11.04 3.428-3.122-.393-5.017-2.415-6.133-5.505-.444.898-.947 1.685-1.56 2.302-2.12 2.193-4.685 3.43-7.974 3.092-6.637-.73-10.538-7.923-8.7-18.153 1.953-10.79 11.32-14.724 16.73-11.856.11-1.35.222-2.7.334-4.104.055-.28.055-.562.11-.843a96.962 96.962 0 0 1-4.962.956c-23.975 3.99-15.722-15.57-9.868-20.683 6.636-5.733 7.36-1.855 5.297-.562-3.68 2.36-5.296 15.905 5.242 15.905 1.73 0 3.346-.112 4.962-.28 3.29-18.323 13.27-27.204 21.356-24.28 8.976 3.26 8.03 17.534-11.543 25.628zM102.28 50.555c-.225-3.542-.225-7.532-.168-11.636 0-.506.056-1.01.056-1.46-3.346-1.52-6.635 3.652-7.473 10.79-.946 8.374 2.788 12.814 4.908 10.792 1.617-1.63 2.453-6.803 2.676-8.486zM126.364 7.39c-1.784-2.643-8.307.56-12.098 14.33 9.535-4.553 13.326-12.42 12.098-14.33z"/></svg>